# xmcd CD database file
#
# Track frame offsets:
#	150
#	10728
#	20195
#	30250
#	40469
#	51691
#	62048
#	73066
#	77948
#	86424
#	98120
#	108125
#	117587
#	125058
#	132443
#	143261
#	147468
#	155416
#	162163
#	167767
#	177616
#
# Disc length: 2410 seconds
#
# Revision: 0
# Processed by: cddbd v1.5.2PL0 Copyright (c) Steve Scherf et al.
# Submitted via: CDex 1.95
#
DISCID=2d096815
DTITLE=Lambert - Lambert
DYEAR=2014
DGENRE=Jazz
TTITLE0=Finally
TTITLE1=Snow Again
TTITLE2=Lucerne
TTITLE3=Requiem
TTITLE4=Ghost
TTITLE5=Chamber
TTITLE6=Chateau Martin
TTITLE7=Run
TTITLE8=Slow Slow
TTITLE9=Fagerhult
TTITLE10=Mathilda
TTITLE11=Dance Dance
TTITLE12=Nantes
TTITLE13=The Movie
TTITLE14=Train
TTITLE15=Hope Delays A Lot
TTITLE16=Theroux
TTITLE17=The Streets
TTITLE18=No Romance
TTITLE19=Tanner
TTITLE20=Slot
EXTD=YEAR: 2014
EXTT0=
EXTT1=
EXTT2=
EXTT3=
EXTT4=
EXTT5=
EXTT6=
EXTT7=
EXTT8=
EXTT9=
EXTT10=
EXTT11=
EXTT12=
EXTT13=
EXTT14=
EXTT15=
EXTT16=
EXTT17=
EXTT18=
EXTT19=
EXTT20=
PLAYORDER=
